Coordinates
version=1
nRows=43
nColumns=12
inDegrees=yes

Units are S.I. units (second, meters, Newtons, ...)
Angles are in degrees

endheader
time	SC_y	SC_z	SC_x	AC_y	AC_z	AC_x	GH_y	GH_z	GH_yy	EL_x	PS_y
       0.0              -56.04         -2.573          17.25          46.55          4.893          12.86         -3.765          61.04         -85.96          16.21          78.15
   0.04226              -56.03         -2.569          17.26          46.55          4.894          12.85         -3.778          61.03         -85.97          16.21          78.16
   0.08452              -56.02         -2.565          17.26          46.55          4.894          12.85         -3.792          61.02         -85.98          16.22          78.17
    0.1268              -56.02         -2.561          17.27          46.55          4.894          12.84         -3.807          61.01          -86.0          16.22          78.18
     0.169              -56.01         -2.556          17.28          46.54          4.895          12.84         -3.823           61.0         -86.01          16.23          78.19
    0.2113              -56.01         -2.551          17.29          46.54          4.895          12.84          -3.84          60.99         -86.02          16.23          78.21
    0.2536               -56.0         -2.546           17.3          46.54          4.896          12.83         -3.858          60.98         -86.04          16.24          78.22
    0.2958              -55.99          -2.54          17.31          46.54          4.896          12.82         -3.878          60.96         -86.06          16.24          78.23
    0.3381              -55.98         -2.534          17.33          46.54          4.897          12.82         -3.899          60.95         -86.07          16.25          78.25
    0.3803              -55.97         -2.528          17.34          46.54          4.897          12.81         -3.921          60.94         -86.09          16.26          78.27
    0.4226              -55.96         -2.521          17.35          46.54          4.898          12.81         -3.945          60.92         -86.11          16.26          78.28
    0.4649              -55.95         -2.514          17.37          46.54          4.899           12.8         -3.971           60.9         -86.14          16.27           78.3
    0.5071              -55.94         -2.505          17.38          46.54          4.899          12.79         -3.999          60.88         -86.16          16.28          78.32
    0.5494              -55.93         -2.497           17.4          46.53            4.9          12.78         -4.029          60.86         -86.19          16.29          78.34
    0.5916              -55.92         -2.487          17.42          46.53          4.901          12.77         -4.061          60.84         -86.21           16.3          78.37
    0.6339               -55.9         -2.477          17.44          46.53          4.902          12.76         -4.097          60.82         -86.24          16.31          78.39
    0.6762              -55.89         -2.466          17.46          46.53          4.903          12.75         -4.135          60.79         -86.28          16.32          78.42
    0.7184              -55.87         -2.454          17.49          46.53          4.904          12.74         -4.177          60.76         -86.31          16.33          78.45
    0.7607              -55.85         -2.441          17.51          46.52          4.905          12.73         -4.223          60.73         -86.35          16.34          78.49
     0.803              -55.83         -2.426          17.54          46.52          4.907          12.71         -4.273           60.7         -86.39          16.36          78.52
    0.8452              -55.81         -2.411          17.57          46.52          4.908           12.7         -4.328          60.66         -86.44          16.37          78.56
    0.8875              -55.79         -2.393          17.61          46.51           4.91          12.68         -4.388          60.62         -86.49          16.39          78.61
    0.9297              -55.76         -2.374          17.65          46.51          4.912          12.66         -4.455          60.58         -86.55          16.41          78.65
     0.972              -55.73         -2.352          17.69          46.51          4.913          12.64         -4.529          60.53         -86.61          16.43          78.71
     1.014               -55.7         -2.329          17.74           46.5          4.916          12.62         -4.611          60.47         -86.68          16.45          78.77
     1.057              -55.66         -2.302          17.79           46.5          4.918           12.6         -4.703          60.41         -86.76          16.48          78.84
     1.099              -55.62         -2.273          17.85          46.49          4.921          12.57         -4.806          60.34         -86.85          16.51          78.91
     1.141              -55.57         -2.239          17.92          46.48          4.924          12.53         -4.921          60.26         -86.95          16.54          78.99
     1.183              -55.52         -2.201           18.0          46.48          4.927           12.5         -5.052          60.18         -87.06          16.58          79.09
     1.226              -55.46         -2.159          18.08          46.47          4.931          12.46           -5.2          60.08         -87.19          16.62           79.2
     1.268              -55.39          -2.11          18.18          46.46          4.936          12.41          -5.37          59.96         -87.33          16.67          79.32
      1.31              -55.31         -2.054          18.29          46.45          4.941          12.36         -5.564          59.83          -87.5          16.72          79.46
     1.352              -55.22         -1.989          18.42          46.43          4.947          12.29         -5.788          59.68         -87.69          16.79          79.63
     1.395              -55.12         -1.914          18.57          46.42          4.954          12.22         -6.049          59.51         -87.92          16.86          79.82
     1.437               -55.0         -1.826          18.75           46.4          4.962          12.14         -6.354           59.3         -88.18          16.95          80.04
     1.479              -54.85         -1.722          18.96          46.38          4.971          12.04         -6.714          59.06         -88.49          17.05           80.3
     1.521              -54.68         -1.598          19.21          46.36          4.983          11.92         -7.141          58.77         -88.85          17.17          80.61
     1.564              -54.48          -1.45          19.51          46.33          4.996          11.78         -7.653          58.43         -89.29          17.32          80.98
     1.606              -54.23         -1.272          19.86           46.3          5.012           11.6         -8.273          58.01         -89.82          17.49          81.44
     1.648              -53.92         -1.053           20.3          46.25          5.032          11.39          -9.03           57.5         -90.47          17.71          81.99
      1.69              -53.55        -0.7833          20.85           46.2          5.057          11.13         -9.964          56.87         -91.27          17.97          82.67
     1.733              -53.08        -0.4469          21.52          46.14          5.088          10.81         -11.13          56.09         -92.27           18.3          83.52
     1.775              -52.49       -0.02321          22.38          46.05          5.127           10.4          -12.6           55.1         -93.53          18.72          84.58
